<svg width="111" height="25" viewBox="0 0 111 25" fill="none" xmlns="http://www.w3.org/2000/svg">
<path d="M11.3649 19.2606C10.4002 20.2403 9.29487 21.2494 8.03881 22.2977C2.68295 17.84 0 13.9896 0 10.7369C0 5.85785 3.81843 2.70312 8.03881 2.70312C12.2491 2.70312 16.0676 5.84806 16.0776 10.7075L18.1778 8.65988L19.5946 10.0511L15.0728 14.4599L10.5509 10.0511L11.9678 8.66968L14.0679 10.7075C14.0579 7.1609 11.395 4.66258 8.03881 4.66258C4.67256 4.66258 2.0097 7.18049 2.0097 10.7369C2.0097 13.0295 3.96916 16.0666 8.03881 19.6916C8.68191 19.1136 9.27478 18.5552 9.8174 18.0163C9.64057 17.6761 9.54767 17.3004 9.54608 16.919C9.54608 16.2694 9.81075 15.6464 10.2819 15.1871C10.753 14.7277 11.392 14.4697 12.0582 14.4697C12.7245 14.4697 13.3634 14.7277 13.8346 15.1871C14.3057 15.6464 14.5703 16.2694 14.5703 16.919C14.57 17.2979 14.4792 17.6715 14.3052 18.0102C14.1312 18.3489 13.8787 18.6436 13.5677 18.8707C13.2567 19.0979 12.8958 19.2514 12.5135 19.319C12.1311 19.3867 11.7379 19.3667 11.3649 19.2606Z" fill="#3C654D" fill-opacity="0.18"/>
<path d="M40.5464 6.01622V8.89189H36.0274V21H32.6545V8.89189H28.1356V6.01622H40.5464ZM47.4023 12.4811C47.114 12.409 46.7753 12.3369 46.3861 12.2649C45.9969 12.1784 45.5789 12.1351 45.1321 12.1351C44.9303 12.1351 44.6852 12.1568 44.3969 12.2C44.1231 12.2288 43.914 12.2649 43.7699 12.3081V21H40.5483V10.2324C41.1249 10.0306 41.8023 9.84324 42.5807 9.67027C43.3735 9.48288 44.2528 9.38919 45.2186 9.38919C45.3915 9.38919 45.6005 9.4036 45.8456 9.43243C46.0906 9.44685 46.3357 9.47567 46.5807 9.51892C46.8258 9.54775 47.0708 9.59099 47.3159 9.64865C47.5609 9.69189 47.7699 9.74955 47.9429 9.82162L47.4023 12.4811ZM53.3543 18.7514C53.6714 18.7514 53.9741 18.7441 54.2624 18.7297C54.5506 18.7153 54.7813 18.6937 54.9543 18.6649V16.2216C54.8245 16.1928 54.6299 16.164 54.3705 16.1351C54.111 16.1063 53.8732 16.0919 53.657 16.0919C53.3543 16.0919 53.066 16.1135 52.7921 16.1568C52.5326 16.1856 52.302 16.2505 52.1002 16.3514C51.8984 16.4523 51.7398 16.5892 51.6245 16.7622C51.5092 16.9351 51.4515 17.1514 51.4515 17.4108C51.4515 17.9153 51.6173 18.2685 51.9488 18.4703C52.2948 18.6577 52.7633 18.7514 53.3543 18.7514ZM53.0948 9.32432C54.0461 9.32432 54.8389 9.43243 55.4732 9.64865C56.1074 9.86486 56.6119 10.1748 56.9867 10.5784C57.3759 10.982 57.6497 11.4721 57.8083 12.0486C57.9669 12.6252 58.0461 13.2667 58.0461 13.973V20.6757C57.5849 20.7766 56.9434 20.8919 56.1218 21.0216C55.3002 21.1658 54.3056 21.2378 53.138 21.2378C52.4029 21.2378 51.7326 21.173 51.1272 21.0432C50.5362 20.9135 50.0245 20.7045 49.5921 20.4162C49.1597 20.1135 48.8281 19.7243 48.5975 19.2486C48.3669 18.773 48.2515 18.1892 48.2515 17.4973C48.2515 16.8342 48.3813 16.2721 48.6407 15.8108C48.9146 15.3495 49.275 14.982 49.7218 14.7081C50.1687 14.4342 50.6804 14.2396 51.257 14.1243C51.8335 13.9946 52.4317 13.9297 53.0515 13.9297C53.4696 13.9297 53.8371 13.9514 54.1543 13.9946C54.4858 14.0234 54.7524 14.0667 54.9543 14.1243V13.8216C54.9543 13.2739 54.7885 12.8342 54.457 12.5027C54.1254 12.1712 53.5488 12.0054 52.7272 12.0054C52.1795 12.0054 51.6389 12.0486 51.1056 12.1351C50.5723 12.2072 50.111 12.3153 49.7218 12.4595L49.311 9.86486C49.4984 9.80721 49.729 9.74955 50.0029 9.69189C50.2912 9.61982 50.6011 9.56216 50.9326 9.51892C51.2642 9.46126 51.6101 9.41802 51.9705 9.38919C52.3452 9.34595 52.72 9.32432 53.0948 9.32432ZM63.3263 21C62.5911 19.5586 61.8416 17.8721 61.0776 15.9405C60.3281 14.009 59.6146 11.9045 58.9371 9.62703H62.3533C62.4974 10.1892 62.6632 10.8018 62.8506 11.4649C63.0524 12.1135 63.2542 12.7766 63.456 13.4541C63.6722 14.1171 63.8812 14.7658 64.083 15.4C64.2992 16.0342 64.5082 16.6108 64.7101 17.1297C64.8974 16.6108 65.0992 16.0342 65.3155 15.4C65.5317 14.7658 65.7407 14.1171 65.9425 13.4541C66.1587 12.7766 66.3605 12.1135 66.5479 11.4649C66.7497 10.8018 66.9227 10.1892 67.0668 9.62703H70.3965C69.7191 11.9045 68.9983 14.009 68.2344 15.9405C67.4848 17.8721 66.7425 19.5586 66.0073 21H63.3263ZM70.8354 15.4C70.8354 14.391 70.9868 13.5117 71.2895 12.7622C71.6066 11.9982 72.0174 11.364 72.5219 10.8595C73.0264 10.355 73.603 9.97297 74.2517 9.71351C74.9147 9.45405 75.5922 9.32432 76.2841 9.32432C77.8985 9.32432 79.1742 9.82162 80.1111 10.8162C81.0481 11.7964 81.5165 13.245 81.5165 15.1622C81.5165 15.3495 81.5093 15.5586 81.4949 15.7892C81.4805 16.0054 81.4661 16.2 81.4517 16.373H74.1436C74.2156 17.036 74.5255 17.5622 75.0733 17.9514C75.621 18.3405 76.3562 18.5351 77.2787 18.5351C77.8697 18.5351 78.4463 18.4847 79.0084 18.3838C79.585 18.2685 80.0535 18.1315 80.4138 17.973L80.8463 20.5892C80.6733 20.6757 80.4427 20.7622 80.1544 20.8486C79.8661 20.9351 79.5418 21.0072 79.1814 21.0649C78.8354 21.1369 78.4607 21.1946 78.0571 21.2378C77.6535 21.2811 77.2499 21.3027 76.8463 21.3027C75.8228 21.3027 74.9291 21.1514 74.1652 20.8486C73.4156 20.5459 72.7886 20.1351 72.2841 19.6162C71.794 19.0829 71.4264 18.4559 71.1814 17.7351C70.9508 17.0144 70.8354 16.236 70.8354 15.4ZM78.403 14.1676C78.3886 13.8937 78.3381 13.627 78.2517 13.3676C78.1796 13.1081 78.0571 12.8775 77.8841 12.6757C77.7255 12.4739 77.5165 12.3081 77.2571 12.1784C77.012 12.0486 76.7021 11.9838 76.3273 11.9838C75.967 11.9838 75.6571 12.0486 75.3976 12.1784C75.1381 12.2937 74.9219 12.4523 74.749 12.6541C74.576 12.8559 74.439 13.0937 74.3381 13.3676C74.2517 13.627 74.1868 13.8937 74.1436 14.1676H78.403ZM88.0928 21.2162C87.1558 21.2018 86.3919 21.1009 85.8009 20.9135C85.2243 20.7261 84.763 20.4667 84.4171 20.1351C84.0856 19.7892 83.8549 19.3784 83.7252 18.9027C83.6099 18.4126 83.5522 17.8649 83.5522 17.2595V4.74054L86.7738 4.22162V16.6108C86.7738 16.8991 86.7955 17.1586 86.8387 17.3892C86.882 17.6198 86.9612 17.8144 87.0765 17.973C87.2063 18.1315 87.3865 18.2613 87.6171 18.3622C87.8477 18.4631 88.1576 18.5279 88.5468 18.5568L88.0928 21.2162ZM89.4025 15.4C89.4025 14.391 89.5538 13.5117 89.8565 12.7622C90.1736 11.9982 90.5844 11.364 91.0889 10.8595C91.5934 10.355 92.17 9.97297 92.8187 9.71351C93.4817 9.45405 94.1592 9.32432 94.8511 9.32432C96.4655 9.32432 97.7412 9.82162 98.6781 10.8162C99.6151 11.7964 100.084 13.245 100.084 15.1622C100.084 15.3495 100.076 15.5586 100.062 15.7892C100.047 16.0054 100.033 16.2 100.019 16.373H92.7106C92.7826 17.036 93.0925 17.5622 93.6403 17.9514C94.188 18.3405 94.9232 18.5351 95.8457 18.5351C96.4367 18.5351 97.0133 18.4847 97.5754 18.3838C98.152 18.2685 98.6205 18.1315 98.9808 17.973L99.4133 20.5892C99.2403 20.6757 99.0097 20.7622 98.7214 20.8486C98.4331 20.9351 98.1088 21.0072 97.7484 21.0649C97.4025 21.1369 97.0277 21.1946 96.6241 21.2378C96.2205 21.2811 95.8169 21.3027 95.4133 21.3027C94.3898 21.3027 93.4961 21.1514 92.7322 20.8486C91.9826 20.5459 91.3556 20.1351 90.8511 19.6162C90.361 19.0829 89.9934 18.4559 89.7484 17.7351C89.5178 17.0144 89.4025 16.236 89.4025 15.4ZM96.97 14.1676C96.9556 13.8937 96.9052 13.627 96.8187 13.3676C96.7466 13.1081 96.6241 12.8775 96.4511 12.6757C96.2925 12.4739 96.0835 12.3081 95.8241 12.1784C95.579 12.0486 95.2691 11.9838 94.8943 11.9838C94.534 11.9838 94.2241 12.0486 93.9646 12.1784C93.7052 12.2937 93.4889 12.4523 93.316 12.6541C93.143 12.8559 93.0061 13.0937 92.9052 13.3676C92.8187 13.627 92.7538 13.8937 92.7106 14.1676H96.97ZM108.973 12.4811C108.685 12.409 108.346 12.3369 107.957 12.2649C107.568 12.1784 107.15 12.1351 106.703 12.1351C106.501 12.1351 106.256 12.1568 105.968 12.2C105.694 12.2288 105.485 12.2649 105.341 12.3081V21H102.119V10.2324C102.696 10.0306 103.373 9.84324 104.152 9.67027C104.944 9.48288 105.824 9.38919 106.79 9.38919C106.962 9.38919 107.171 9.4036 107.417 9.43243C107.662 9.44685 107.907 9.47567 108.152 9.51892C108.397 9.54775 108.642 9.59099 108.887 9.64865C109.132 9.69189 109.341 9.74955 109.514 9.82162L108.973 12.4811Z" fill="#3C654D" fill-opacity="0.18"/>
</svg>
