<svg width="100" height="73" viewBox="0 0 100 73" fill="none" xmlns="http://www.w3.org/2000/svg">
<path d="M52.7562 34.184C51.0518 35.97 49.0988 37.8097 46.8794 39.7207C37.4162 31.5943 32.6757 24.5751 32.6757 18.6455C32.6757 9.75104 39.4225 4 46.8794 4C54.3186 4 61.0654 9.73318 61.0832 18.5919L64.7939 14.8591L67.2973 17.3953L59.3077 25.4324L51.3181 17.3953L53.8215 14.877L57.5322 18.5919C57.5145 12.1265 52.8095 7.57207 46.8794 7.57207C40.9316 7.57207 36.2266 12.1622 36.2266 18.6455C36.2266 22.8248 39.6888 28.3615 46.8794 34.9699C48.0157 33.9161 49.0633 32.8981 50.022 31.9157C49.7096 31.2956 49.5454 30.6106 49.5426 29.9154C49.5426 28.7312 50.0103 27.5955 50.8427 26.7581C51.6751 25.9207 52.8041 25.4503 53.9813 25.4503C55.1585 25.4503 56.2875 25.9207 57.1199 26.7581C57.9523 27.5955 58.42 28.7312 58.42 29.9154C58.4194 30.606 58.259 31.2871 57.9515 31.9046C57.644 32.5222 57.1979 33.0592 56.6484 33.4733C56.0989 33.8875 55.4612 34.1673 54.7857 34.2906C54.1101 34.414 53.4153 34.3775 52.7562 34.184Z" fill="#3C654D"/>
<path d="M12.5841 50.7812C12.7248 51.2619 12.8772 51.807 13.0414 52.4166C13.2172 53.0145 13.3989 53.6359 13.5865 54.2807C13.7858 54.9255 13.9851 55.5703 14.1844 56.2151C14.3837 56.8599 14.5772 57.4578 14.7648 58.0089C14.9172 57.4109 15.0696 56.7603 15.222 56.0569C15.3861 55.3534 15.5385 54.6266 15.6792 53.8762C15.8199 53.1259 15.9547 52.3815 16.0837 51.6429C16.2244 50.8926 16.3533 50.1715 16.4706 49.4798H19.3194C18.9091 51.5198 18.4343 53.589 17.895 55.6876C17.3674 57.7861 16.793 59.7791 16.1716 61.6667H13.6569C13.2465 60.5412 12.8479 59.3629 12.461 58.132C12.0742 56.8892 11.6931 55.6465 11.318 54.4038C10.9428 55.6465 10.5677 56.8892 10.1925 58.132C9.81735 59.3629 9.4246 60.5412 9.01427 61.6667H6.49953C5.87817 59.7791 5.29785 57.7861 4.75856 55.6876C4.23099 53.589 3.76204 51.5198 3.35171 49.4798H6.32368C6.44091 50.1715 6.56987 50.8926 6.71056 51.6429C6.85124 52.3815 6.99779 53.1259 7.1502 53.8762C7.30261 54.6266 7.45502 55.3534 7.60742 56.0569C7.77156 56.7603 7.93569 57.4109 8.09982 58.0089C8.31085 57.4344 8.51601 56.8248 8.71532 56.18C8.91462 55.5351 9.10806 54.8903 9.29564 54.2455C9.48322 53.6007 9.65321 52.9794 9.80562 52.3815C9.96975 51.7836 10.1163 51.2501 10.2453 50.7812H12.5841ZM23.5767 59.8378C23.8346 59.8378 24.0808 59.8319 24.3153 59.8202C24.5498 59.8084 24.7373 59.7909 24.878 59.7674V57.7802C24.7725 57.7568 24.6142 57.7333 24.4032 57.7099C24.1922 57.6865 23.9987 57.6747 23.8229 57.6747C23.5767 57.6747 23.3422 57.6923 23.1195 57.7275C22.9084 57.7509 22.7209 57.8037 22.5567 57.8858C22.3926 57.9678 22.2636 58.0792 22.1698 58.2199C22.0761 58.3606 22.0292 58.5364 22.0292 58.7474C22.0292 59.1578 22.164 59.445 22.4336 59.6091C22.715 59.7616 23.096 59.8378 23.5767 59.8378ZM23.3657 52.1704C24.1394 52.1704 24.7842 52.2584 25.3001 52.4342C25.8159 52.6101 26.2263 52.8621 26.5311 53.1904C26.8476 53.5187 27.0704 53.9173 27.1993 54.3862C27.3283 54.8552 27.3928 55.3769 27.3928 55.9513V61.4029C27.0176 61.4849 26.4959 61.5787 25.8276 61.6842C25.1594 61.8015 24.3505 61.8601 23.4008 61.8601C22.8029 61.8601 22.2578 61.8073 21.7654 61.7018C21.2847 61.5963 20.8685 61.4263 20.5168 61.1918C20.1651 60.9456 19.8954 60.6291 19.7079 60.2422C19.5203 59.8553 19.4265 59.3805 19.4265 58.8178C19.4265 58.2785 19.532 57.8213 19.743 57.4461C19.9658 57.071 20.2589 56.772 20.6223 56.5493C20.9857 56.3265 21.4019 56.1682 21.8709 56.0744C22.3398 55.9689 22.8264 55.9162 23.3305 55.9162C23.6705 55.9162 23.9694 55.9338 24.2274 55.9689C24.497 55.9924 24.7139 56.0275 24.878 56.0744V55.8282C24.878 55.3827 24.7432 55.0252 24.4736 54.7555C24.2039 54.4859 23.735 54.3511 23.0667 54.3511C22.6212 54.3511 22.1816 54.3862 21.7478 54.4566C21.314 54.5152 20.9389 54.6031 20.6223 54.7204L20.2882 52.6101C20.4406 52.5632 20.6282 52.5163 20.8509 52.4694C21.0854 52.4108 21.3375 52.3639 21.6071 52.3287C21.8768 52.2818 22.1581 52.2466 22.4512 52.2232C22.756 52.188 23.0608 52.1704 23.3657 52.1704ZM29.3958 52.7332C29.8413 52.6042 30.4157 52.487 31.1192 52.3815C31.8226 52.2642 32.5612 52.2056 33.335 52.2056C34.1204 52.2056 34.7711 52.3111 35.287 52.5222C35.8145 52.7215 36.2307 53.0087 36.5355 53.3838C36.8403 53.759 37.0572 54.2045 37.1862 54.7204C37.3152 55.2362 37.3796 55.8107 37.3796 56.4437V61.6667H34.7594V56.7603C34.7594 55.9162 34.648 55.3183 34.4253 54.9665C34.2025 54.6148 33.7863 54.439 33.1767 54.439C32.9891 54.439 32.7898 54.4507 32.5788 54.4742C32.3677 54.4859 32.1802 54.5035 32.016 54.5269V61.6667H29.3958V52.7332ZM41.6184 56.9713C41.6184 57.7802 41.8001 58.4309 42.1635 58.9233C42.5269 59.4157 43.0662 59.6619 43.7814 59.6619C44.0159 59.6619 44.2327 59.656 44.432 59.6443C44.6314 59.6209 44.7955 59.5974 44.9244 59.574V54.8083C44.7603 54.7028 44.5434 54.6148 44.2738 54.5445C44.0159 54.4742 43.7521 54.439 43.4824 54.439C42.2397 54.439 41.6184 55.2831 41.6184 56.9713ZM47.5447 61.3677C47.3102 61.438 47.0406 61.5084 46.7358 61.5787C46.4309 61.6373 46.1085 61.6901 45.7686 61.737C45.4403 61.7839 45.1003 61.8191 44.7486 61.8425C44.4086 61.8777 44.0803 61.8953 43.7638 61.8953C43.0018 61.8953 42.3218 61.7839 41.7239 61.5611C41.126 61.3384 40.6218 61.0219 40.2115 60.6115C39.8012 60.1895 39.4846 59.6853 39.2619 59.0992C39.0509 58.5013 38.9453 57.833 38.9453 57.0944C38.9453 56.3441 39.0391 55.67 39.2267 55.0721C39.4143 54.4624 39.6839 53.9466 40.0357 53.5245C40.3874 53.1025 40.8153 52.7801 41.3194 52.5573C41.8352 52.3346 42.4214 52.2232 43.078 52.2232C43.4414 52.2232 43.7638 52.2584 44.0452 52.3287C44.3383 52.3991 44.6314 52.4987 44.9244 52.6277V48.4423L47.5447 48.0202V61.3677ZM49.1922 57.112C49.1922 56.2913 49.3153 55.5762 49.5615 54.9665C49.8194 54.3452 50.1535 53.8293 50.5638 53.419C50.9742 53.0087 51.4431 52.698 51.9707 52.487C52.51 52.276 53.061 52.1704 53.6237 52.1704C54.9368 52.1704 55.9743 52.5749 56.7364 53.3838C57.4984 54.1811 57.8794 55.3593 57.8794 56.9185C57.8794 57.071 57.8736 57.241 57.8619 57.4285C57.8501 57.6044 57.8384 57.7627 57.8267 57.9033H51.8828C51.9414 58.4426 52.1934 58.8705 52.6389 59.1871C53.0844 59.5036 53.6823 59.6619 54.4327 59.6619C54.9133 59.6619 55.3823 59.6209 55.8395 59.5388C56.3085 59.445 56.6895 59.3336 56.9826 59.2047L57.3343 61.3325C57.1936 61.4029 57.006 61.4732 56.7715 61.5436C56.5371 61.6139 56.2733 61.6725 55.9802 61.7194C55.6988 61.778 55.394 61.8249 55.0657 61.8601C54.7375 61.8953 54.4092 61.9129 54.081 61.9129C53.2486 61.9129 52.5217 61.7898 51.9003 61.5436C51.2907 61.2974 50.7807 60.9632 50.3704 60.5412C49.9718 60.1074 49.6728 59.5974 49.4735 59.0112C49.2859 58.425 49.1922 57.792 49.1922 57.112ZM55.3471 56.1096C55.3354 55.8869 55.2944 55.67 55.224 55.4589C55.1654 55.2479 55.0657 55.0603 54.9251 54.8962C54.7961 54.7321 54.6261 54.5973 54.4151 54.4917C54.2158 54.3862 53.9637 54.3335 53.6589 54.3335C53.3658 54.3335 53.1137 54.3862 52.9027 54.4917C52.6917 54.5855 52.5158 54.7145 52.3751 54.8786C52.2345 55.0428 52.1231 55.2362 52.041 55.4589C51.9707 55.67 51.9179 55.8869 51.8828 56.1096H55.3471ZM65.1098 54.7379C64.8753 54.6793 64.5998 54.6207 64.2832 54.5621C63.9667 54.4917 63.6267 54.4566 63.2633 54.4566C63.0991 54.4566 62.8998 54.4742 62.6654 54.5093C62.4426 54.5328 62.2726 54.5621 62.1554 54.5973V61.6667H59.5351V52.909C60.0041 52.7449 60.5551 52.5925 61.1882 52.4518C61.833 52.2994 62.5481 52.2232 63.3336 52.2232C63.4743 52.2232 63.6443 52.2349 63.8436 52.2584C64.0429 52.2701 64.2422 52.2935 64.4415 52.3287C64.6408 52.3522 64.8401 52.3873 65.0394 52.4342C65.2387 52.4694 65.4087 52.5163 65.5494 52.5749L65.1098 54.7379ZM70.2807 61.8425C69.5186 61.8308 68.8973 61.7487 68.4166 61.5963C67.9476 61.4439 67.5725 61.2329 67.2911 60.9632C67.0215 60.6819 66.8339 60.3477 66.7284 59.9609C66.6346 59.5622 66.5877 59.1167 66.5877 58.6244V48.4423L69.2079 48.0202V58.0968C69.2079 58.3313 69.2255 58.5423 69.2607 58.7299C69.2959 58.9174 69.3603 59.0757 69.4541 59.2047C69.5597 59.3336 69.7062 59.4391 69.8938 59.5212C70.0814 59.6033 70.3334 59.656 70.65 59.6795L70.2807 61.8425ZM79.6814 61.3501C79.2359 61.4791 78.6615 61.5963 77.9581 61.7018C77.2546 61.8191 76.516 61.8777 75.7423 61.8777C74.9568 61.8777 74.3002 61.7722 73.7727 61.5611C73.2568 61.3501 72.8465 61.057 72.5417 60.6819C72.2369 60.295 72.02 59.8378 71.891 59.3102C71.7621 58.7826 71.6976 58.2023 71.6976 57.5692V52.4166H74.3178V57.2527C74.3178 58.0968 74.4292 58.7064 74.652 59.0816C74.8747 59.4567 75.2909 59.6443 75.9005 59.6443C76.0881 59.6443 76.2874 59.6385 76.4984 59.6267C76.7095 59.6033 76.8971 59.5798 77.0612 59.5564V52.4166H79.6814V61.3501ZM84.4301 59.785C84.9108 59.785 85.2508 59.7381 85.4501 59.6443C85.6494 59.5505 85.7491 59.3688 85.7491 59.0992C85.7491 58.8881 85.6201 58.7064 85.3622 58.554C85.1043 58.3899 84.7115 58.2082 84.1839 58.0089C83.7736 57.8564 83.3985 57.6982 83.0585 57.534C82.7302 57.3699 82.4488 57.1765 82.2144 56.9537C81.9799 56.7192 81.7982 56.4437 81.6692 56.1272C81.5402 55.8107 81.4758 55.4296 81.4758 54.9841C81.4758 54.1166 81.7982 53.4307 82.443 52.9266C83.0878 52.4225 83.9729 52.1704 85.0984 52.1704C85.6611 52.1704 86.2004 52.2232 86.7163 52.3287C87.2321 52.4225 87.6424 52.528 87.9473 52.6453L87.49 54.6852C87.1852 54.5797 86.8511 54.4859 86.4877 54.4038C86.1359 54.3217 85.7373 54.2807 85.2918 54.2807C84.4712 54.2807 84.0608 54.5093 84.0608 54.9665C84.0608 55.0721 84.0784 55.1659 84.1136 55.2479C84.1488 55.33 84.2191 55.4121 84.3246 55.4941C84.4301 55.5645 84.5708 55.6465 84.7467 55.7403C84.9343 55.8224 85.1687 55.9162 85.4501 56.0217C86.0246 56.2327 86.4994 56.4437 86.8745 56.6548C87.2497 56.8541 87.5428 57.0768 87.7538 57.323C87.9766 57.5575 88.129 57.8213 88.211 58.1144C88.3048 58.4075 88.3517 58.7474 88.3517 59.1343C88.3517 60.0488 88.0059 60.7405 87.3142 61.2094C86.6342 61.6784 85.667 61.9129 84.4126 61.9129C83.5919 61.9129 82.9061 61.8425 82.355 61.7018C81.8157 61.5611 81.4406 61.4439 81.2296 61.3501L81.6692 59.2223C82.1147 59.3981 82.5719 59.5388 83.0409 59.6443C83.5098 59.7381 83.9729 59.785 84.4301 59.785ZM89.8556 50.1129L92.4759 49.6909V52.4166H95.6237V54.5973H92.4759V57.8506C92.4759 58.4016 92.5697 58.8412 92.7572 59.1695C92.9565 59.4978 93.3493 59.6619 93.9355 59.6619C94.2168 59.6619 94.5041 59.6385 94.7972 59.5916C95.102 59.5329 95.3775 59.4567 95.6237 59.3629L95.993 61.4029C95.6764 61.5318 95.3247 61.6432 94.9379 61.737C94.551 61.8308 94.0762 61.8777 93.5134 61.8777C92.7983 61.8777 92.2062 61.7839 91.7373 61.5963C91.2683 61.397 90.8932 61.1274 90.6118 60.7874C90.3304 60.4357 90.1311 60.0136 90.0139 59.5212C89.9084 59.0288 89.8556 58.4837 89.8556 57.8858V50.1129Z" fill="#3C654D"/>
</svg>
