<svg width="451" height="141" viewBox="0 0 451 141" fill="none" xmlns="http://www.w3.org/2000/svg">
<path d="M65.8575 94.8366C62.5593 98.1026 58.78 101.467 54.4854 104.961C36.1733 90.1008 27 77.2653 27 66.4221C27 50.1572 40.0556 39.6406 54.4854 39.6406C68.8809 39.6406 81.9365 50.1246 81.9709 66.3241L89.1514 59.4981L93.9958 64.1359L78.5352 78.833L63.0746 64.1359L67.9189 59.5308L75.0995 66.3241C75.0652 54.5011 65.9606 46.1727 54.4854 46.1727C42.9759 46.1727 33.8714 54.5664 33.8714 66.4221C33.8714 74.0646 40.5709 84.1893 54.4854 96.2736C56.6843 94.3467 58.7113 92.485 60.5666 90.6887C59.962 89.5547 59.6444 88.3021 59.639 87.0308C59.639 84.8652 60.5439 82.7884 62.1547 81.2572C63.7655 79.7259 65.9502 78.8657 68.2282 78.8657C70.5062 78.8657 72.6908 79.7259 74.3016 81.2572C75.9124 82.7884 76.8173 84.8652 76.8173 87.0308C76.8161 88.2937 76.5058 89.5391 75.9108 90.6684C75.3158 91.7976 74.4525 92.7797 73.3892 93.537C72.326 94.2943 71.0919 94.806 69.7847 95.0315C68.4774 95.2571 67.1329 95.1903 65.8575 94.8366Z" fill="#F8F8F8"/>
<path d="M147.814 47.05V56.6363H132.75V97H121.506V56.6363H106.442V47.05H147.814ZM170.669 68.6013C169.708 68.361 168.579 68.1208 167.282 67.8805C165.984 67.5922 164.591 67.448 163.101 67.448C162.428 67.448 161.612 67.5201 160.651 67.6643C159.738 67.7604 159.041 67.8805 158.56 68.0247V97H147.821V61.1052C149.743 60.4324 152.001 59.8078 154.596 59.2311C157.239 58.6065 160.17 58.2941 163.39 58.2941C163.966 58.2941 164.663 58.3422 165.48 58.4383C166.297 58.4863 167.114 58.5824 167.93 58.7266C168.747 58.8227 169.564 58.9669 170.381 59.1591C171.198 59.3032 171.895 59.4954 172.471 59.7357L170.669 68.6013ZM190.511 89.5039C191.568 89.5039 192.577 89.4799 193.538 89.4318C194.499 89.3838 195.268 89.3117 195.845 89.2156V81.0708C195.412 80.9747 194.763 80.8786 193.898 80.7825C193.033 80.6864 192.241 80.6383 191.52 80.6383C190.511 80.6383 189.55 80.7104 188.637 80.8545C187.772 80.9506 187.003 81.1669 186.33 81.5032C185.657 81.8396 185.129 82.2961 184.744 82.8727C184.36 83.4493 184.168 84.1701 184.168 85.0351C184.168 86.7169 184.72 87.8942 185.826 88.5669C186.979 89.1916 188.541 89.5039 190.511 89.5039ZM189.646 58.0779C192.817 58.0779 195.46 58.4383 197.574 59.1591C199.689 59.8798 201.37 60.913 202.62 62.2584C203.917 63.6039 204.83 65.2376 205.359 67.1597C205.887 69.0818 206.152 71.2201 206.152 73.5747V95.9188C204.614 96.2552 202.476 96.6396 199.737 97.0721C196.998 97.5526 193.682 97.7929 189.79 97.7929C187.339 97.7929 185.105 97.5766 183.087 97.1442C181.117 96.7117 179.411 96.0149 177.969 95.0539C176.528 94.0448 175.422 92.7474 174.654 91.1617C173.885 89.576 173.5 87.6299 173.5 85.3234C173.5 83.113 173.933 81.239 174.798 79.7013C175.711 78.1636 176.912 76.9383 178.402 76.0253C179.891 75.1123 181.597 74.4636 183.519 74.0792C185.441 73.6467 187.435 73.4305 189.502 73.4305C190.895 73.4305 192.12 73.5026 193.178 73.6467C194.283 73.7428 195.172 73.887 195.845 74.0792V73.0701C195.845 71.2441 195.292 69.7786 194.187 68.6734C193.082 67.5682 191.159 67.0156 188.42 67.0156C186.594 67.0156 184.793 67.1597 183.015 67.448C181.237 67.6883 179.699 68.0487 178.402 68.5292L177.032 59.8798C177.657 59.6876 178.426 59.4954 179.339 59.3032C180.3 59.063 181.333 58.8708 182.438 58.7266C183.543 58.5344 184.696 58.3902 185.898 58.2941C187.147 58.15 188.396 58.0779 189.646 58.0779ZM223.754 97C221.303 92.1948 218.804 86.5727 216.257 80.1338C213.759 73.6948 211.38 66.6792 209.122 59.087H220.51C220.991 60.961 221.543 63.0032 222.168 65.2136C222.841 67.376 223.513 69.5863 224.186 71.8448C224.907 74.0552 225.604 76.2175 226.276 78.3318C226.997 80.4461 227.694 82.3682 228.366 84.098C228.991 82.3682 229.664 80.4461 230.385 78.3318C231.105 76.2175 231.802 74.0552 232.475 71.8448C233.196 69.5863 233.868 67.376 234.493 65.2136C235.166 63.0032 235.742 60.961 236.223 59.087H247.323C245.065 66.6792 242.662 73.6948 240.115 80.1338C237.616 86.5727 235.142 92.1948 232.691 97H223.754ZM248.786 78.3318C248.786 74.9682 249.291 72.037 250.3 69.5383C251.357 66.9915 252.726 64.8773 254.408 63.1954C256.09 61.5136 258.012 60.2402 260.174 59.3753C262.385 58.5104 264.643 58.0779 266.95 58.0779C272.332 58.0779 276.584 59.7357 279.708 63.0513C282.831 66.3188 284.393 71.148 284.393 77.539C284.393 78.1636 284.369 78.8604 284.321 79.6292C284.273 80.35 284.224 80.9987 284.176 81.5753H259.814C260.054 83.7857 261.087 85.5396 262.913 86.837C264.739 88.1344 267.19 88.7831 270.265 88.7831C272.236 88.7831 274.158 88.6149 276.032 88.2786C277.954 87.8942 279.515 87.4377 280.717 86.9091L282.158 95.6305C281.582 95.9188 280.813 96.2071 279.852 96.4955C278.891 96.7838 277.81 97.024 276.608 97.2162C275.455 97.4565 274.206 97.6487 272.86 97.7929C271.515 97.937 270.169 98.0091 268.824 98.0091C265.412 98.0091 262.433 97.5045 259.886 96.4955C257.387 95.4864 255.297 94.1169 253.615 92.387C251.982 90.6091 250.756 88.5188 249.939 86.1162C249.171 83.7136 248.786 81.1188 248.786 78.3318ZM274.013 74.2234C273.965 73.3104 273.797 72.4214 273.509 71.5565C273.269 70.6915 272.86 69.9227 272.284 69.25C271.755 68.5773 271.058 68.0247 270.193 67.5922C269.376 67.1597 268.343 66.9435 267.094 66.9435C265.893 66.9435 264.86 67.1597 263.995 67.5922C263.13 67.9766 262.409 68.5052 261.832 69.1779C261.256 69.8506 260.799 70.6435 260.463 71.5565C260.174 72.4214 259.958 73.3104 259.814 74.2234H274.013ZM306.315 97.7208C303.192 97.6727 300.645 97.3364 298.675 96.7117C296.753 96.087 295.215 95.2221 294.062 94.1169C292.957 92.9636 292.188 91.5942 291.755 90.0084C291.371 88.3747 291.179 86.5487 291.179 84.5305V42.7974L301.918 41.0675V82.3682C301.918 83.3292 301.991 84.1941 302.135 84.963C302.279 85.7318 302.543 86.3805 302.928 86.9091C303.36 87.4377 303.961 87.8701 304.73 88.2065C305.498 88.5429 306.531 88.7591 307.829 88.8552L306.315 97.7208ZM323.223 97H312.483V59.087H323.223V97ZM324.232 48.1311C324.232 50.1013 323.583 51.663 322.286 52.8162C321.036 53.9214 319.547 54.474 317.817 54.474C316.087 54.474 314.573 53.9214 313.276 52.8162C312.027 51.663 311.402 50.1013 311.402 48.1311C311.402 46.161 312.027 44.6233 313.276 43.5182C314.573 42.3649 316.087 41.7883 317.817 41.7883C319.547 41.7883 321.036 42.3649 322.286 43.5182C323.583 44.6233 324.232 46.161 324.232 48.1311ZM342.7 89.2877C344.67 89.2877 346.064 89.0955 346.881 88.711C347.698 88.3266 348.106 87.5818 348.106 86.4766C348.106 85.6117 347.578 84.8669 346.52 84.2422C345.463 83.5695 343.854 82.8247 341.691 82.0078C340.009 81.3831 338.472 80.7344 337.078 80.0617C335.733 79.389 334.58 78.5961 333.619 77.6831C332.657 76.7221 331.913 75.5928 331.384 74.2954C330.856 72.998 330.591 71.4364 330.591 69.6104C330.591 66.0545 331.913 63.2435 334.556 61.1773C337.198 59.111 340.826 58.0779 345.439 58.0779C347.746 58.0779 349.956 58.2941 352.07 58.7266C354.185 59.111 355.867 59.5435 357.116 60.024L355.242 68.385C353.993 67.9526 352.623 67.5682 351.133 67.2318C349.692 66.8954 348.058 66.7273 346.232 66.7273C342.869 66.7273 341.187 67.6643 341.187 69.5383C341.187 69.9708 341.259 70.3552 341.403 70.6915C341.547 71.0279 341.835 71.3643 342.268 71.7006C342.7 71.9889 343.277 72.3253 343.998 72.7097C344.767 73.0461 345.728 73.4305 346.881 73.863C349.235 74.7279 351.182 75.5928 352.719 76.4578C354.257 77.2747 355.458 78.1877 356.323 79.1967C357.236 80.1578 357.861 81.239 358.197 82.4403C358.582 83.6416 358.774 85.0351 358.774 86.6208C358.774 90.3688 357.356 93.2039 354.521 95.126C351.734 97.0481 347.77 98.0091 342.628 98.0091C339.265 98.0091 336.454 97.7208 334.195 97.1442C331.985 96.5675 330.447 96.087 329.582 95.7026L331.384 86.9812C333.21 87.7019 335.084 88.2786 337.006 88.711C338.928 89.0955 340.826 89.2877 342.7 89.2877ZM364.938 49.6448L375.677 47.9149V59.087H388.579V68.0247H375.677V81.3591C375.677 83.6175 376.062 85.4195 376.831 86.7649C377.647 88.1104 379.257 88.7831 381.66 88.7831C382.813 88.7831 383.99 88.687 385.192 88.4948C386.441 88.2545 387.57 87.9422 388.579 87.5578L390.093 95.9188C388.796 96.4474 387.354 96.9039 385.768 97.2883C384.183 97.6727 382.236 97.8649 379.93 97.8649C376.999 97.8649 374.572 97.4805 372.65 96.7117C370.728 95.8948 369.19 94.7896 368.037 93.3961C366.884 91.9545 366.067 90.2247 365.586 88.2065C365.154 86.1883 364.938 83.9539 364.938 81.5032V49.6448ZM408.903 89.5039C409.96 89.5039 410.969 89.4799 411.93 89.4318C412.891 89.3838 413.66 89.3117 414.237 89.2156V81.0708C413.804 80.9747 413.156 80.8786 412.291 80.7825C411.426 80.6864 410.633 80.6383 409.912 80.6383C408.903 80.6383 407.942 80.7104 407.029 80.8545C406.164 80.9506 405.395 81.1669 404.723 81.5032C404.05 81.8396 403.521 82.2961 403.137 82.8727C402.753 83.4493 402.56 84.1701 402.56 85.0351C402.56 86.7169 403.113 87.8942 404.218 88.5669C405.371 89.1916 406.933 89.5039 408.903 89.5039ZM408.038 58.0779C411.21 58.0779 413.853 58.4383 415.967 59.1591C418.081 59.8798 419.763 60.913 421.012 62.2584C422.31 63.6039 423.223 65.2376 423.751 67.1597C424.28 69.0818 424.544 71.2201 424.544 73.5747V95.9188C423.006 96.2552 420.868 96.6396 418.129 97.0721C415.39 97.5526 412.075 97.7929 408.182 97.7929C405.732 97.7929 403.497 97.5766 401.479 97.1442C399.509 96.7117 397.803 96.0149 396.362 95.0539C394.92 94.0448 393.815 92.7474 393.046 91.1617C392.277 89.576 391.893 87.6299 391.893 85.3234C391.893 83.113 392.325 81.239 393.19 79.7013C394.103 78.1636 395.304 76.9383 396.794 76.0253C398.284 75.1123 399.99 74.4636 401.912 74.0792C403.834 73.6467 405.828 73.4305 407.894 73.4305C409.288 73.4305 410.513 73.5026 411.57 73.6467C412.675 73.7428 413.564 73.887 414.237 74.0792V73.0701C414.237 71.2441 413.684 69.7786 412.579 68.6734C411.474 67.5682 409.552 67.0156 406.813 67.0156C404.987 67.0156 403.185 67.1597 401.407 67.448C399.629 67.6883 398.091 68.0487 396.794 68.5292L395.425 59.8798C396.049 59.6876 396.818 59.4954 397.731 59.3032C398.692 59.063 399.725 58.8708 400.83 58.7266C401.936 58.5344 403.089 58.3902 404.29 58.2941C405.54 58.15 406.789 58.0779 408.038 58.0779Z" fill="#F5F5F5"/>
</svg>
