<svg width="367" height="141" viewBox="0 0 367 141" fill="none" xmlns="http://www.w3.org/2000/svg">
<path d="M54.8575 93.1959C51.5593 96.462 47.78 99.826 43.4854 103.321C25.1733 88.4602 16 75.6247 16 64.7815C16 48.5166 29.0556 38 43.4854 38C57.8809 38 70.9365 48.484 70.9709 64.6835L78.1514 57.8575L82.9958 62.4952L67.5352 77.1924L52.0746 62.4952L56.9189 57.8901L64.0995 64.6835C64.0652 52.8604 54.9606 44.5321 43.4854 44.5321C31.9759 44.5321 22.8714 52.9258 22.8714 64.7815C22.8714 72.424 29.5709 82.5487 43.4854 94.633C45.6843 92.706 47.7113 90.8444 49.5666 89.0481C48.962 87.914 48.6444 86.6615 48.639 85.3901C48.639 83.2246 49.5439 81.1478 51.1547 79.6165C52.7655 78.0853 54.9502 77.225 57.2282 77.225C59.5062 77.225 61.6908 78.0853 63.3016 79.6165C64.9124 81.1478 65.8173 83.2246 65.8173 85.3901C65.8161 86.6531 65.5058 87.8985 64.9108 89.0277C64.3158 90.157 63.4525 91.1391 62.3892 91.8964C61.326 92.6537 60.0919 93.1653 58.7847 93.3909C57.4774 93.6164 56.1329 93.5497 54.8575 93.1959Z" fill="#F8F8F8"/>
<path d="M134.814 47.05V56.6363H119.75V97H108.506V56.6363H93.4416V47.05H134.814ZM157.669 68.6013C156.708 68.361 155.579 68.1208 154.282 67.8805C152.984 67.5922 151.591 67.448 150.101 67.448C149.428 67.448 148.612 67.5201 147.651 67.6643C146.738 67.7604 146.041 67.8805 145.56 68.0247V97H134.821V61.1052C136.743 60.4324 139.001 59.8078 141.596 59.2311C144.239 58.6065 147.17 58.2941 150.39 58.2941C150.966 58.2941 151.663 58.3422 152.48 58.4383C153.297 58.4863 154.114 58.5824 154.93 58.7266C155.747 58.8227 156.564 58.9669 157.381 59.1591C158.198 59.3032 158.895 59.4954 159.471 59.7357L157.669 68.6013ZM174.467 97H163.727V59.087H174.467V97ZM175.476 48.1311C175.476 50.1013 174.827 51.663 173.53 52.8162C172.28 53.9214 170.791 54.474 169.061 54.474C167.331 54.474 165.817 53.9214 164.52 52.8162C163.27 51.663 162.646 50.1013 162.646 48.1311C162.646 46.161 163.27 44.6233 164.52 43.5182C165.817 42.3649 167.331 41.7883 169.061 41.7883C170.791 41.7883 172.28 42.3649 173.53 43.5182C174.827 44.6233 175.476 46.161 175.476 48.1311ZM207.351 78.3318C207.351 75.0162 206.606 72.3734 205.116 70.4032C203.627 68.385 201.416 67.376 198.485 67.376C197.524 67.376 196.635 67.424 195.818 67.5201C195.001 67.5682 194.329 67.6402 193.8 67.7363V87.1253C194.473 87.5578 195.338 87.9182 196.395 88.2065C197.5 88.4948 198.605 88.639 199.71 88.639C204.804 88.639 207.351 85.2032 207.351 78.3318ZM218.306 78.0435C218.306 80.9747 217.946 83.6416 217.225 86.0441C216.505 88.4467 215.447 90.513 214.054 92.2429C212.66 93.9727 210.931 95.3182 208.864 96.2792C206.798 97.2403 204.419 97.7208 201.729 97.7208C200.239 97.7208 198.845 97.5766 197.548 97.2883C196.251 97 195.001 96.5916 193.8 96.063V110.334H183.06V60.3844C184.021 60.0961 185.127 59.8318 186.376 59.5915C187.625 59.3032 188.923 59.063 190.268 58.8708C191.662 58.6785 193.055 58.5344 194.449 58.4383C195.89 58.2941 197.26 58.2221 198.557 58.2221C201.681 58.2221 204.468 58.7026 206.918 59.6636C209.369 60.5766 211.435 61.898 213.117 63.6279C214.799 65.3097 216.072 67.376 216.937 69.8266C217.85 72.2773 218.306 75.0162 218.306 78.0435ZM240.195 97.7208C237.072 97.6727 234.525 97.3364 232.555 96.7117C230.633 96.087 229.095 95.2221 227.942 94.1169C226.837 92.9636 226.068 91.5942 225.636 90.0084C225.251 88.3747 225.059 86.5487 225.059 84.5305V42.7974L235.799 41.0675V82.3682C235.799 83.3292 235.871 84.1941 236.015 84.963C236.159 85.7318 236.423 86.3805 236.808 86.9091C237.24 87.4377 237.841 87.8701 238.61 88.2065C239.378 88.5429 240.412 88.7591 241.709 88.8552L240.195 97.7208ZM281.826 77.9714C281.826 80.9506 281.393 83.6896 280.528 86.1883C279.663 88.639 278.414 90.7532 276.78 92.5312C275.146 94.261 273.176 95.6065 270.87 96.5675C268.611 97.5286 266.065 98.0091 263.229 98.0091C260.442 98.0091 257.896 97.5286 255.589 96.5675C253.331 95.6065 251.385 94.261 249.751 92.5312C248.117 90.7532 246.844 88.639 245.931 86.1883C245.018 83.6896 244.561 80.9506 244.561 77.9714C244.561 74.9922 245.018 72.2773 245.931 69.8266C246.892 67.376 248.189 65.2857 249.823 63.5558C251.505 61.826 253.475 60.4805 255.733 59.5195C258.04 58.5584 260.539 58.0779 263.229 58.0779C265.968 58.0779 268.467 58.5584 270.726 59.5195C273.032 60.4805 275.002 61.826 276.636 63.5558C278.27 65.2857 279.543 67.376 280.456 69.8266C281.369 72.2773 281.826 74.9922 281.826 77.9714ZM270.87 77.9714C270.87 74.6558 270.197 72.061 268.852 70.187C267.554 68.2649 265.68 67.3039 263.229 67.3039C260.779 67.3039 258.881 68.2649 257.535 70.187C256.19 72.061 255.517 74.6558 255.517 77.9714C255.517 81.287 256.19 83.9299 257.535 85.9C258.881 87.8221 260.779 88.7831 263.229 88.7831C265.68 88.7831 267.554 87.8221 268.852 85.9C270.197 83.9299 270.87 81.287 270.87 77.9714ZM311.492 68.6013C310.531 68.361 309.402 68.1208 308.104 67.8805C306.807 67.5922 305.413 67.448 303.924 67.448C303.251 67.448 302.434 67.5201 301.473 67.6643C300.56 67.7604 299.863 67.8805 299.383 68.0247V97H288.643V61.1052C290.565 60.4324 292.824 59.8078 295.419 59.2311C298.061 58.6065 300.993 58.2941 304.212 58.2941C304.789 58.2941 305.486 58.3422 306.302 58.4383C307.119 58.4863 307.936 58.5824 308.753 58.7266C309.57 58.8227 310.387 58.9669 311.204 59.1591C312.021 59.3032 312.717 59.4954 313.294 59.7357L311.492 68.6013ZM331.333 89.5039C332.391 89.5039 333.4 89.4799 334.361 89.4318C335.322 89.3838 336.091 89.3117 336.667 89.2156V81.0708C336.235 80.9747 335.586 80.8786 334.721 80.7825C333.856 80.6864 333.063 80.6383 332.342 80.6383C331.333 80.6383 330.372 80.7104 329.459 80.8545C328.594 80.9506 327.826 81.1669 327.153 81.5032C326.48 81.8396 325.952 82.2961 325.567 82.8727C325.183 83.4493 324.99 84.1701 324.99 85.0351C324.99 86.7169 325.543 87.8942 326.648 88.5669C327.802 89.1916 329.363 89.5039 331.333 89.5039ZM330.468 58.0779C333.64 58.0779 336.283 58.4383 338.397 59.1591C340.511 59.8798 342.193 60.913 343.442 62.2584C344.74 63.6039 345.653 65.2376 346.181 67.1597C346.71 69.0818 346.974 71.2201 346.974 73.5747V95.9188C345.437 96.2552 343.298 96.6396 340.559 97.0721C337.82 97.5526 334.505 97.7929 330.613 97.7929C328.162 97.7929 325.928 97.5766 323.909 97.1442C321.939 96.7117 320.233 96.0149 318.792 95.0539C317.35 94.0448 316.245 92.7474 315.476 91.1617C314.707 89.576 314.323 87.6299 314.323 85.3234C314.323 83.113 314.755 81.239 315.62 79.7013C316.533 78.1636 317.735 76.9383 319.224 76.0253C320.714 75.1123 322.42 74.4636 324.342 74.0792C326.264 73.6467 328.258 73.4305 330.324 73.4305C331.718 73.4305 332.943 73.5026 334 73.6467C335.105 73.7428 335.994 73.887 336.667 74.0792V73.0701C336.667 71.2441 336.115 69.7786 335.009 68.6734C333.904 67.5682 331.982 67.0156 329.243 67.0156C327.417 67.0156 325.615 67.1597 323.837 67.448C322.059 67.6883 320.522 68.0487 319.224 68.5292L317.855 59.8798C318.479 59.6876 319.248 59.4954 320.161 59.3032C321.122 59.063 322.155 58.8708 323.261 58.7266C324.366 58.5344 325.519 58.3902 326.72 58.2941C327.97 58.15 329.219 58.0779 330.468 58.0779Z" fill="#F5F5F5"/>
</svg>
