<svg width="228" height="261" viewBox="0 0 228 261" fill="none" xmlns="http://www.w3.org/2000/svg">
<path d="M35.7929 207.154V215.142H23.2417V248.771H13.8733V215.142H1.32216V207.154H35.7929ZM54.8351 225.11C54.0344 224.91 53.0936 224.71 52.0126 224.51C50.9317 224.27 49.7706 224.15 48.5295 224.15C47.969 224.15 47.2884 224.21 46.4877 224.33C45.727 224.41 45.1465 224.51 44.7461 224.63V248.771H35.7982V218.865C37.3996 218.304 39.2813 217.784 41.4432 217.303C43.6452 216.783 46.0873 216.523 48.7697 216.523C49.2502 216.523 49.8307 216.563 50.5113 216.643C51.1919 216.683 51.8725 216.763 52.5531 216.883C53.2337 216.963 53.9143 217.083 54.5949 217.243C55.2755 217.364 55.856 217.524 56.3365 217.724L54.8351 225.11ZM71.3664 242.526C72.2472 242.526 73.088 242.506 73.8887 242.466C74.6894 242.426 75.33 242.366 75.8104 242.286V235.5C75.4501 235.42 74.9096 235.34 74.1889 235.259C73.4683 235.179 72.8077 235.139 72.2072 235.139C71.3664 235.139 70.5657 235.199 69.805 235.32C69.0844 235.4 68.4438 235.58 67.8833 235.86C67.3228 236.14 66.8824 236.521 66.5621 237.001C66.2419 237.481 66.0817 238.082 66.0817 238.803C66.0817 240.204 66.5421 241.185 67.4629 241.745C68.4238 242.266 69.725 242.526 71.3664 242.526ZM70.6458 216.343C73.2881 216.343 75.4901 216.643 77.2517 217.243C79.0132 217.844 80.4145 218.705 81.4554 219.826C82.5364 220.947 83.297 222.308 83.7374 223.909C84.1778 225.511 84.398 227.292 84.398 229.254V247.871C83.1169 248.151 81.3353 248.471 79.0533 248.832C76.7712 249.232 74.0088 249.432 70.7659 249.432C68.7241 249.432 66.8624 249.252 65.1809 248.892C63.5395 248.531 62.1182 247.951 60.9171 247.15C59.716 246.309 58.7952 245.228 58.1547 243.907C57.5141 242.586 57.1938 240.965 57.1938 239.043C57.1938 237.201 57.5541 235.64 58.2748 234.359C59.0354 233.078 60.0363 232.057 61.2774 231.296C62.5185 230.535 63.9398 229.995 65.5412 229.674C67.1427 229.314 68.8041 229.134 70.5257 229.134C71.6867 229.134 72.7076 229.194 73.5884 229.314C74.5092 229.394 75.2499 229.514 75.8104 229.674V228.834C75.8104 227.312 75.35 226.091 74.4291 225.17C73.5083 224.25 71.9069 223.789 69.6249 223.789C68.1035 223.789 66.6022 223.909 65.1209 224.15C63.6395 224.35 62.3584 224.65 61.2774 225.05L60.1364 217.844C60.6569 217.684 61.2975 217.524 62.0581 217.364C62.8588 217.163 63.7196 217.003 64.6404 216.883C65.5613 216.723 66.5221 216.603 67.523 216.523C68.5639 216.403 69.6049 216.343 70.6458 216.343ZM99.0634 248.771C97.0216 244.768 94.9398 240.084 92.8179 234.719C90.736 229.354 88.7542 223.509 86.8726 217.183H96.361C96.7614 218.745 97.2218 220.446 97.7422 222.288C98.3027 224.09 98.8632 225.931 99.4237 227.813C100.024 229.654 100.605 231.456 101.165 233.218C101.766 234.979 102.346 236.581 102.907 238.022C103.427 236.581 103.988 234.979 104.588 233.218C105.189 231.456 105.769 229.654 106.33 227.813C106.93 225.931 107.491 224.09 108.011 222.288C108.572 220.446 109.052 218.745 109.453 217.183H118.701C116.819 223.509 114.817 229.354 112.696 234.719C110.614 240.084 108.552 244.768 106.51 248.771H99.0634ZM119.92 233.218C119.92 230.415 120.34 227.973 121.181 225.891C122.062 223.769 123.203 222.008 124.604 220.606C126.005 219.205 127.607 218.144 129.408 217.424C131.25 216.703 133.132 216.343 135.053 216.343C139.537 216.343 143.081 217.724 145.683 220.486C148.285 223.209 149.586 227.232 149.586 232.557C149.586 233.078 149.566 233.658 149.526 234.299C149.486 234.899 149.446 235.44 149.406 235.92H129.108C129.308 237.762 130.169 239.223 131.69 240.304C133.212 241.385 135.254 241.925 137.816 241.925C139.457 241.925 141.059 241.785 142.62 241.505C144.222 241.185 145.523 240.804 146.524 240.364L147.725 247.63C147.244 247.871 146.604 248.111 145.803 248.351C145.002 248.591 144.102 248.792 143.101 248.952C142.14 249.152 141.099 249.312 139.978 249.432C138.857 249.552 137.736 249.612 136.615 249.612C133.772 249.612 131.29 249.192 129.168 248.351C127.086 247.51 125.345 246.369 123.944 244.928C122.582 243.447 121.561 241.705 120.881 239.703C120.24 237.702 119.92 235.54 119.92 233.218ZM140.939 229.795C140.899 229.034 140.759 228.293 140.518 227.573C140.318 226.852 139.978 226.211 139.497 225.651C139.057 225.09 138.477 224.63 137.756 224.27C137.075 223.909 136.214 223.729 135.174 223.729C134.173 223.729 133.312 223.909 132.591 224.27C131.871 224.59 131.27 225.03 130.79 225.591C130.309 226.151 129.929 226.812 129.649 227.573C129.408 228.293 129.228 229.034 129.108 229.795H140.939ZM167.852 249.372C165.249 249.332 163.128 249.052 161.486 248.531C159.885 248.011 158.603 247.29 157.643 246.369C156.722 245.408 156.081 244.267 155.721 242.946C155.401 241.585 155.24 240.064 155.24 238.382V203.611L164.188 202.17V236.581C164.188 237.381 164.249 238.102 164.369 238.743C164.489 239.383 164.709 239.924 165.029 240.364C165.39 240.804 165.89 241.165 166.531 241.445C167.171 241.725 168.032 241.905 169.113 241.985L167.852 249.372ZM171.489 233.218C171.489 230.415 171.91 227.973 172.75 225.891C173.631 223.769 174.772 222.008 176.174 220.606C177.575 219.205 179.176 218.144 180.978 217.424C182.819 216.703 184.701 216.343 186.623 216.343C191.107 216.343 194.65 217.724 197.252 220.486C199.855 223.209 201.156 227.232 201.156 232.557C201.156 233.078 201.136 233.658 201.096 234.299C201.056 234.899 201.016 235.44 200.976 235.92H180.678C180.878 237.762 181.738 239.223 183.26 240.304C184.781 241.385 186.823 241.925 189.385 241.925C191.027 241.925 192.628 241.785 194.19 241.505C195.791 241.185 197.092 240.804 198.093 240.364L199.294 247.63C198.814 247.871 198.173 248.111 197.372 248.351C196.572 248.591 195.671 248.792 194.67 248.952C193.709 249.152 192.668 249.312 191.547 249.432C190.426 249.552 189.305 249.612 188.184 249.612C185.342 249.612 182.859 249.192 180.738 248.351C178.656 247.51 176.914 246.369 175.513 244.928C174.152 243.447 173.131 241.705 172.45 239.703C171.81 237.702 171.489 235.54 171.489 233.218ZM192.508 229.795C192.468 229.034 192.328 228.293 192.088 227.573C191.887 226.852 191.547 226.211 191.067 225.651C190.626 225.09 190.046 224.63 189.325 224.27C188.645 223.909 187.784 223.729 186.743 223.729C185.742 223.729 184.881 223.909 184.161 224.27C183.44 224.59 182.839 225.03 182.359 225.591C181.879 226.151 181.498 226.812 181.218 227.573C180.978 228.293 180.798 229.034 180.678 229.795H192.508ZM225.847 225.11C225.046 224.91 224.105 224.71 223.024 224.51C221.943 224.27 220.782 224.15 219.541 224.15C218.981 224.15 218.3 224.21 217.499 224.33C216.739 224.41 216.158 224.51 215.758 224.63V248.771H206.81V218.865C208.411 218.304 210.293 217.784 212.455 217.303C214.657 216.783 217.099 216.523 219.781 216.523C220.262 216.523 220.842 216.563 221.523 216.643C222.204 216.683 222.884 216.763 223.565 216.883C224.245 216.963 224.926 217.083 225.607 217.243C226.287 217.364 226.868 217.524 227.348 217.724L225.847 225.11Z" fill="white"/>
<path d="M129.349 149.734C120.523 158.698 110.41 167.93 98.9181 177.521C49.9168 136.737 25.3701 101.509 25.3701 71.7501C25.3701 27.111 60.3054 -1.75195 98.9181 -1.75195C137.439 -1.75195 172.374 27.0214 172.466 71.4812L191.681 52.7471L204.643 65.4755L163.273 105.812L121.902 65.4755L134.865 52.8368L154.079 71.4812C153.987 39.0327 129.624 16.1754 98.9181 16.1754C68.1199 16.1754 43.7571 39.212 43.7571 71.7501C43.7571 92.7251 61.6844 120.512 98.9181 153.678C104.802 148.389 110.226 143.28 115.191 138.35C113.573 135.238 112.723 131.8 112.708 128.311C112.708 122.368 115.13 116.668 119.44 112.465C123.75 108.263 129.596 105.902 135.692 105.902C141.788 105.902 147.634 108.263 151.944 112.465C156.254 116.668 158.676 122.368 158.676 128.311C158.673 131.777 157.842 135.195 156.25 138.294C154.658 141.393 152.348 144.089 149.503 146.167C146.657 148.246 143.355 149.65 139.857 150.269C136.359 150.888 132.761 150.705 129.349 149.734Z" fill="white" fill-opacity="0.86"/>
</svg>
